<?xml version="1.0" encoding="UTF-8" standalone="no"?>
<!DOCTYPE svg PUBLIC "-//W3C//DTD SVG 1.1//EN"
 "http://www.w3.org/Graphics/SVG/1.1/DTD/svg11.dtd">
<!-- Generated by graphviz version 2.49.0 (20210828.1703)
 -->
<!-- Pages: 1 -->
<svg width="418pt" height="476pt"
 viewBox="0.00 0.00 418.00 476.00" xmlns="http://www.w3.org/2000/svg" xmlns:xlink="http://www.w3.org/1999/xlink">
<g id="graph0" class="graph" transform="scale(1 1) rotate(0) translate(4 472)">
<polygon fill="white" stroke="transparent" points="-4,4 -4,-472 414,-472 414,4 -4,4"/>
<!-- start -->
<g id="node1" class="node">
<title>start</title>
<ellipse fill="none" stroke="black" cx="279" cy="-306" rx="27" ry="18"/>
<text text-anchor="middle" x="279" y="-302.3" font-family="Times,serif" font-size="14.00">start</text>
</g>
<!-- YA -->
<g id="node2" class="node">
<title>YA</title>
<ellipse fill="none" stroke="black" cx="334" cy="-90" rx="27" ry="18"/>
<text text-anchor="middle" x="334" y="-86.3" font-family="Times,serif" font-size="14.00">YA</text>
</g>
<!-- start&#45;&#45;YA -->
<g id="edge1" class="edge">
<title>start&#45;&#45;YA</title>
<path fill="none" stroke="black" d="M288.91,-289.2C302.68,-266.21 326.94,-221.72 336,-180 341.35,-155.38 339.07,-126.03 336.72,-107.96"/>
</g>
<!-- yq -->
<g id="node4" class="node">
<title>yq</title>
<ellipse fill="none" stroke="black" cx="216" cy="-234" rx="27" ry="18"/>
<text text-anchor="middle" x="216" y="-230.3" font-family="Times,serif" font-size="14.00">yq</text>
</g>
<!-- start&#45;&#45;yq -->
<g id="edge7" class="edge">
<title>start&#45;&#45;yq</title>
<path fill="none" stroke="black" d="M265.64,-290.15C254.95,-278.28 240.03,-261.7 229.34,-249.82"/>
</g>
<!-- nf -->
<g id="node11" class="node">
<title>nf</title>
<ellipse fill="none" stroke="black" cx="279" cy="-162" rx="27" ry="18"/>
<text text-anchor="middle" x="279" y="-158.3" font-family="Times,serif" font-size="14.00">nf</text>
</g>
<!-- start&#45;&#45;nf -->
<g id="edge9" class="edge">
<title>start&#45;&#45;nf</title>
<path fill="none" stroke="black" d="M279,-287.87C279,-260.58 279,-207.52 279,-180.19"/>
</g>
<!-- yi -->
<g id="node8" class="node">
<title>yi</title>
<ellipse fill="none" stroke="black" cx="279" cy="-18" rx="27" ry="18"/>
<text text-anchor="middle" x="279" y="-14.3" font-family="Times,serif" font-size="14.00">yi</text>
</g>
<!-- YA&#45;&#45;yi -->
<g id="edge8" class="edge">
<title>YA&#45;&#45;yi</title>
<path fill="none" stroke="black" d="M322.07,-73.81C312.84,-62.07 300.13,-45.89 290.91,-34.16"/>
</g>
<!-- ps -->
<g id="node3" class="node">
<title>ps</title>
<ellipse fill="none" stroke="black" cx="114" cy="-306" rx="27" ry="18"/>
<text text-anchor="middle" x="114" y="-302.3" font-family="Times,serif" font-size="14.00">ps</text>
</g>
<!-- ps&#45;&#45;yq -->
<g id="edge2" class="edge">
<title>ps&#45;&#45;yq</title>
<path fill="none" stroke="black" d="M132.24,-292.49C150.8,-279.74 179.41,-260.11 197.92,-247.41"/>
</g>
<!-- JS -->
<g id="node7" class="node">
<title>JS</title>
<ellipse fill="none" stroke="black" cx="59" cy="-90" rx="27" ry="18"/>
<text text-anchor="middle" x="59" y="-86.3" font-family="Times,serif" font-size="14.00">JS</text>
</g>
<!-- ps&#45;&#45;JS -->
<g id="edge14" class="edge">
<title>ps&#45;&#45;JS</title>
<path fill="none" stroke="black" d="M109.42,-287.82C106.67,-277.46 103.11,-263.98 100,-252 86.38,-199.51 70.66,-137.29 63.26,-107.93"/>
</g>
<!-- ps&#45;&#45;yi -->
<g id="edge15" class="edge">
<title>ps&#45;&#45;yi</title>
<path fill="none" stroke="black" d="M117.77,-288.13C125.01,-257.8 142.69,-192.71 171,-144 197.23,-98.87 240.75,-54.73 263.72,-32.98"/>
</g>
<!-- yq&#45;&#45;YA -->
<g id="edge22" class="edge">
<title>yq&#45;&#45;YA</title>
<path fill="none" stroke="black" d="M240.71,-226.33C263.54,-218.85 296.6,-204.46 315,-180 330.86,-158.91 334.11,-127.46 334.46,-108.15"/>
</g>
<!-- yq&#45;&#45;JS -->
<g id="edge13" class="edge">
<title>yq&#45;&#45;JS</title>
<path fill="none" stroke="black" d="M200.66,-219.13C170.72,-192.05 104.81,-132.43 74.63,-105.14"/>
</g>
<!-- VJ -->
<g id="node9" class="node">
<title>VJ</title>
<ellipse fill="none" stroke="black" cx="207" cy="-162" rx="27" ry="18"/>
<text text-anchor="middle" x="207" y="-158.3" font-family="Times,serif" font-size="14.00">VJ</text>
</g>
<!-- yq&#45;&#45;VJ -->
<g id="edge5" class="edge">
<title>yq&#45;&#45;VJ</title>
<path fill="none" stroke="black" d="M213.82,-216.05C212.43,-205.21 210.62,-191.18 209.22,-180.28"/>
</g>
<!-- yq&#45;&#45;nf -->
<g id="edge16" class="edge">
<title>yq&#45;&#45;nf</title>
<path fill="none" stroke="black" d="M229.36,-218.15C240.05,-206.28 254.97,-189.7 265.66,-177.82"/>
</g>
<!-- zt -->
<g id="node5" class="node">
<title>zt</title>
<ellipse fill="none" stroke="black" cx="150" cy="-450" rx="27" ry="18"/>
<text text-anchor="middle" x="150" y="-446.3" font-family="Times,serif" font-size="14.00">zt</text>
</g>
<!-- mu -->
<g id="node6" class="node">
<title>mu</title>
<ellipse fill="none" stroke="black" cx="186" cy="-378" rx="27" ry="18"/>
<text text-anchor="middle" x="186" y="-374.3" font-family="Times,serif" font-size="14.00">mu</text>
</g>
<!-- zt&#45;&#45;mu -->
<g id="edge3" class="edge">
<title>zt&#45;&#45;mu</title>
<path fill="none" stroke="black" d="M158.35,-432.76C164.17,-421.46 171.89,-406.44 177.7,-395.15"/>
</g>
<!-- QT -->
<g id="node10" class="node">
<title>QT</title>
<ellipse fill="none" stroke="black" cx="114" cy="-378" rx="27" ry="18"/>
<text text-anchor="middle" x="114" y="-374.3" font-family="Times,serif" font-size="14.00">QT</text>
</g>
<!-- zt&#45;&#45;QT -->
<g id="edge20" class="edge">
<title>zt&#45;&#45;QT</title>
<path fill="none" stroke="black" d="M141.65,-432.76C135.83,-421.46 128.11,-406.44 122.3,-395.15"/>
</g>
<!-- JS&#45;&#45;yi -->
<g id="edge4" class="edge">
<title>JS&#45;&#45;yi</title>
<path fill="none" stroke="black" d="M80.96,-79.39C87.08,-76.86 93.75,-74.21 100,-72 154.23,-52.79 219.31,-34.74 254.13,-25.48"/>
</g>
<!-- ez -->
<g id="node12" class="node">
<title>ez</title>
<ellipse fill="none" stroke="black" cx="30" cy="-18" rx="27" ry="18"/>
<text text-anchor="middle" x="30" y="-14.3" font-family="Times,serif" font-size="14.00">ez</text>
</g>
<!-- JS&#45;&#45;ez -->
<g id="edge12" class="edge">
<title>JS&#45;&#45;ez</title>
<path fill="none" stroke="black" d="M52.13,-72.41C47.5,-61.25 41.44,-46.6 36.82,-35.47"/>
</g>
<!-- QT&#45;&#45;ps -->
<g id="edge6" class="edge">
<title>QT&#45;&#45;ps</title>
<path fill="none" stroke="black" d="M114,-359.7C114,-348.85 114,-334.92 114,-324.1"/>
</g>
<!-- QT&#45;&#45;yi -->
<g id="edge17" class="edge">
<title>QT&#45;&#45;yi</title>
<path fill="none" stroke="black" d="M134.61,-366.29C139.56,-363.99 144.9,-361.74 150,-360 271.38,-318.7 410,-363.22 410,-235 410,-235 410,-235 410,-161 410,-117.63 399.01,-104.23 370,-72 351.29,-51.21 322.44,-36.34 302.25,-27.74"/>
</g>
<!-- nf&#45;&#45;YA -->
<g id="edge10" class="edge">
<title>nf&#45;&#45;YA</title>
<path fill="none" stroke="black" d="M290.93,-145.81C300.16,-134.07 312.87,-117.89 322.09,-106.16"/>
</g>
<!-- nf&#45;&#45;JS -->
<g id="edge11" class="edge">
<title>nf&#45;&#45;JS</title>
<path fill="none" stroke="black" d="M257.92,-150.36C253.08,-148.11 247.91,-145.85 243,-144 187.48,-123.05 119.93,-105.55 84.12,-96.87"/>
</g>
<!-- nf&#45;&#45;yi -->
<g id="edge19" class="edge">
<title>nf&#45;&#45;yi</title>
<path fill="none" stroke="black" d="M279,-143.87C279,-116.58 279,-63.52 279,-36.19"/>
</g>
<!-- end -->
<g id="node13" class="node">
<title>end</title>
<ellipse fill="none" stroke="black" cx="38" cy="-450" rx="27" ry="18"/>
<text text-anchor="middle" x="38" y="-446.3" font-family="Times,serif" font-size="14.00">end</text>
</g>
<!-- end&#45;&#45;JS -->
<g id="edge23" class="edge">
<title>end&#45;&#45;JS</title>
<path fill="none" stroke="black" d="M38,-431.95C38,-405.29 38,-352.11 38,-307 38,-307 38,-307 38,-233 38,-187.39 48.73,-134.43 54.85,-107.93"/>
</g>
<!-- end&#45;&#45;QT -->
<g id="edge18" class="edge">
<title>end&#45;&#45;QT</title>
<path fill="none" stroke="black" d="M53.38,-434.83C66.57,-422.69 85.46,-405.28 98.64,-393.14"/>
</g>
<!-- end&#45;&#45;ez -->
<g id="edge21" class="edge">
<title>end&#45;&#45;ez</title>
<path fill="none" stroke="black" d="M30.49,-432.34C19.42,-406.2 0,-353.7 0,-307 0,-307 0,-307 0,-161 0,-114.89 15.33,-62.14 24.07,-35.81"/>
</g>
</g>
</svg>
